<?xml version="1.0" encoding="UTF-8"?> <svg xmlns="http://www.w3.org/2000/svg" xmlns:xlink="http://www.w3.org/1999/xlink" width="50px" height="50px" viewBox="0 0 50 50" version="1.1"><title>sv-2</title><g id="sv-2" stroke="none" stroke-width="1" fill="none" fill-rule="evenodd"><g><circle id="Oval" fill-opacity="0" fill="#FFFFFF" cx="25" cy="25" r="25"></circle><path d="M27.3045937,3 C29.2204687,3 30.7791562,4.5586875 30.7791562,6.47475 L30.7791562,6.47475 L30.7791562,6.94725 L33.5184375,6.94725 C34.46025,6.94725 35.3183437,7.3194375 35.9348437,7.99528125 C36.55125,8.67103125 36.8430937,9.55959375 36.75675,10.4971875 L36.75675,10.4971875 L36.6302812,11.8720313 C37.467,12.5110313 38.005125,13.488 38.0590312,14.5493438 L38.0590312,14.5493438 L38.538,23.9236875 C39.981,24.0632813 41.3791875,24.6475313 42.388125,26.7004688 C43.451625,28.8645938 44.1094687,32.7134063 44.5210312,39.18 C44.5952812,40.345875 44.3518125,41.2107188 43.7765625,41.8238438 C42.8904375,42.7682813 41.454375,42.8999063 39.5085,42.9182813 L39.5085,42.9182813 L39.588375,44.4810938 C39.636,45.4142813 39.3124687,46.2960938 38.6776875,46.9641563 C38.0428125,47.6322188 37.1785312,48.0000938 36.2442187,48.0000938 L36.2442187,48.0000938 L14.3805,48.0000938 C13.4460937,48.0000938 12.5819062,47.6322188 11.9470312,46.9641563 C11.3121562,46.2960938 10.9887187,45.4142813 11.0363437,44.4811875 L11.0363437,44.4811875 L11.1162187,42.9182813 C9.170625,42.8999063 7.73475,42.7681875 6.848625,41.8239375 C6.273375,41.2108125 6.02971875,40.3460625 6.10396875,39.1800938 C6.515625,32.7135 7.17346875,28.8646875 8.2370625,26.7005625 C9.24590625,24.6478125 10.6439062,24.0635625 12.0867187,23.9237813 L12.0867187,23.9237813 L12.5656875,14.5490625 C12.6194062,13.4941875 13.1472187,12.5180625 13.9949062,11.87175 L13.9949062,11.87175 L13.8684375,10.497 C13.7820937,9.5593125 14.0740312,8.67084375 14.6903437,7.99509375 C15.3066562,7.31934375 16.1648437,6.94715625 17.1065625,6.94715625 L17.1065625,6.94715625 L19.1303437,6.94715625 L19.1303437,6.47465625 C19.1303437,4.5586875 20.6890312,3 22.605,3 L22.605,3 Z M20.4762187,39.4104375 L19.65975,39.4104375 L19.65975,46.125 L20.4762187,46.125 L20.4762187,39.4104375 Z M27.5585625,24.324 L22.3512187,24.324 L22.3512187,31.4150625 C22.9727812,31.8413438 23.386125,32.5877813 23.386125,33.4363125 L23.386125,33.4363125 L23.386125,37.0123125 C23.386125,37.8609375 22.9727812,38.6074688 22.3512187,39.0338438 L22.3512187,39.0338438 L22.3512187,46.125 L27.5585625,46.125 L27.5585625,39.0339375 C26.9368125,38.6075625 26.5234687,37.8610313 26.5234687,37.0123125 L26.5234687,37.0123125 L26.5234687,33.4363125 C26.5234687,32.5877813 26.9368125,31.84125 27.5585625,31.4149688 L27.5585625,31.4149688 L27.5585625,24.324 Z M30.2500312,39.4104375 L29.4335625,39.4104375 L29.4335625,46.125 L30.2500312,46.125 L30.2500312,39.4104375 Z M14.3699841,15.963 L12.9089062,44.576625 C12.8877187,44.991375 13.0289062,45.3805313 13.3062187,45.672375 C13.583625,45.9643125 13.9650937,46.125 14.3804062,46.125 L14.3804062,46.125 L17.78475,46.125 L17.78475,39.0340313 C17.1628125,38.60775 16.7492812,37.8610313 16.7492812,37.0122188 L16.7492812,37.0122188 L16.7492812,33.4362188 C16.7492812,32.5875 17.1628125,31.8409688 17.78475,31.4146875 L17.78475,31.4146875 L17.78475,24.2419688 C16.23825,23.9046563 14.9775937,22.5554063 14.829375,20.946 L14.829375,20.946 L14.3699841,15.963 Z M36.2537812,15.96375 L35.7954375,20.946 C35.6251875,22.7978438 33.9822187,24.3057188 32.1250312,24.32325 L32.1250312,24.32325 L32.1250312,31.4149688 C32.746875,31.84125 33.1603125,32.5877813 33.1603125,33.4364063 L33.1603125,33.4364063 L33.1603125,37.0124063 C33.1603125,37.861125 32.746875,38.60775 32.1250312,39.0340313 L32.1250312,39.0340313 L32.1250312,46.125 L36.2442187,46.125 C36.6595312,46.125 37.0410937,45.9642188 37.3184062,45.672375 C37.5957187,45.3805313 37.7369062,44.991375 37.7157187,44.576625 L37.7157187,44.576625 L36.2537812,15.96375 Z M11.9904375,25.8073125 C10.198125,26.0720625 8.7061875,27.815625 7.97521875,39.2991563 C7.93621875,39.9113438 8.01721875,40.3290938 8.215875,40.5407813 C8.61121875,40.962 9.77540625,41.0322188 11.2119375,41.0439375 L11.2119375,41.0439375 Z M38.6341875,25.8072188 L39.4126875,41.0439375 C40.8495,41.0322188 42.0139687,40.9620938 42.4092187,40.5407813 C42.607875,40.3290938 42.688875,39.9113438 42.6497812,39.2991563 C41.9189062,27.8144063 40.4267812,26.0717813 38.6341875,25.8072188 L38.6341875,25.8072188 Z M21.151125,32.9134688 L18.9844687,32.9134688 C18.814125,32.9134688 18.6242812,33.1281563 18.6242812,33.4363125 L18.6242812,33.4363125 L18.6242812,37.0123125 C18.6242812,37.3205625 18.814125,37.5354375 18.9844687,37.5354375 L18.9844687,37.5354375 L21.151125,37.5354375 C21.3214687,37.5354375 21.511125,37.3205625 21.511125,37.0123125 L21.511125,37.0123125 L21.511125,33.4363125 C21.511125,33.1281563 21.321375,32.9134688 21.151125,32.9134688 L21.151125,32.9134688 Z M30.925125,32.9134688 L28.7584687,32.9134688 C28.588125,32.9134688 28.3984687,33.1281563 28.3984687,33.4363125 L28.3984687,33.4363125 L28.3984687,37.0123125 C28.3984687,37.3205625 28.5882187,37.5354375 28.7584687,37.5354375 L28.7584687,37.5354375 L30.925125,37.5354375 C31.0954687,37.5354375 31.2853125,37.3205625 31.2853125,37.0123125 L31.2853125,37.0123125 L31.2853125,33.4363125 C31.2853125,33.1281563 31.0954687,32.9134688 30.925125,32.9134688 L30.925125,32.9134688 Z M20.4762187,24.324 L19.65975,24.324 L19.65975,31.0385625 L20.4762187,31.0385625 L20.4762187,24.324 Z M30.2500312,24.3240938 L29.4335625,24.3240938 L29.4335625,31.0386563 L30.2500312,31.0386563 L30.2500312,24.3240938 Z M33.5184375,8.8220625 L17.1065625,8.8220625 C16.6984687,8.8220625 16.332375,8.977125 16.0755937,9.2585625 C15.8188125,9.54009375 15.6980625,9.91884375 15.7355625,10.3250625 L15.7355625,10.3250625 L16.6965,20.7741563 C16.780125,21.6819375 17.6209687,22.449 18.5325937,22.449 L18.5325937,22.449 L32.0924062,22.449 C33.004125,22.449 33.8447812,21.6820313 33.9283125,20.7741563 L33.9283125,20.7741563 L34.889625,10.3251563 C34.927125,9.91884375 34.8062812,9.54009375 34.5495937,9.25865625 C34.2928125,8.977125 33.926625,8.8220625 33.5184375,8.8220625 L33.5184375,8.8220625 Z M30.77925,11.3259375 L30.77925,17.2536563 L19.1304375,17.2536563 L19.1304375,11.3259375 L30.77925,11.3259375 Z M28.9041562,13.2009375 L21.0053437,13.2009375 L21.0053437,15.3785625 L28.9041562,15.3785625 L28.9041562,13.2009375 Z M27.3046875,4.875 L22.6050937,4.875 C21.723,4.875 21.0054375,5.59265625 21.0054375,6.47465625 L21.0055312,6.47465625 L21.0055312,6.94715625 L28.9043437,6.94715625 L28.9043437,6.47465625 C28.9043437,5.5925625 28.1866875,4.875 27.3046875,4.875 L27.3046875,4.875 Z" id="Combined-Shape" fill="#123885" fill-rule="nonzero"></path></g></g></svg> 