<?xml version="1.0" encoding="UTF-8"?> <svg xmlns="http://www.w3.org/2000/svg" xmlns:xlink="http://www.w3.org/1999/xlink" width="50px" height="50px" viewBox="0 0 50 50" version="1.1"><title>sv-1</title><g id="sv-1" stroke="none" stroke-width="1" fill="none" fill-rule="evenodd"><g><circle id="Oval" fill-opacity="0" fill="#FFFFFF" cx="25" cy="25" r="25"></circle><path d="M46.6056875,46.19075 L46.6056875,48.06575 L3.4806875,48.06575 L3.4806875,46.19075 L46.6056875,46.19075 Z M17.0980625,14.0399375 L29.5743125,20.315 L36.8285,16.9323125 C39.2619687,15.7975625 42.8207187,14.8279062 45.9527187,16.6533125 C47.3175312,17.4485 47.5698125,18.3649062 47.541125,18.9934062 C47.4858125,20.2052187 46.3701875,21.3019062 44.1305,22.346375 L44.1305,22.346375 L18.199625,34.4381562 C16.5067812,35.2275312 13.7994687,35.8649375 11.3023437,36.0621875 C10.7615,36.1049375 10.2575937,36.1262187 9.79109375,36.1262187 C7.51625,36.1262187 6.12940625,35.6192187 5.6601875,34.6130937 C5.3009375,33.8426562 5.69665625,33.1091562 6.13334375,32.5881875 L6.13334375,32.5881875 L2,27.4554687 L6.5736875,25.3228437 L13.4047812,27.922625 L19.9705625,24.8036562 L9.66809375,14.3591562 L17.0980625,14.0399375 Z M16.6910937,15.9340625 L13.970375,16.0509687 L23.157875,25.3652187 L13.4857812,29.9598125 L6.647375,27.3570312 L4.9611875,28.1434062 L8.6838125,32.7660312 L8.0103125,33.3588125 C7.72315625,33.6115625 7.56753125,33.7908125 7.4841875,33.9049062 C7.889,34.1223125 9.1034375,34.3783437 11.3748125,34.1744375 C13.5970625,33.9749375 15.9649062,33.4114062 17.4071562,32.7388437 L17.4071562,32.7388437 L43.3379375,20.6469687 C45.611375,19.5870312 45.667992,18.9146562 45.667992,18.9079062 C45.6724062,18.8098437 45.5004687,18.5598125 45.0085625,18.2732187 L45.0085625,18.2732187 L44.7972617,18.1560567 C42.8780905,17.1457618 40.4653605,17.3050658 37.6206875,18.6315312 L37.6206875,18.6315312 L29.5431875,22.3980312 L16.6910937,15.9340625 Z" id="Combined-Shape" fill="#123885" fill-rule="nonzero"></path></g></g></svg> 