<?xml version="1.0" encoding="UTF-8"?> <svg xmlns="http://www.w3.org/2000/svg" xmlns:xlink="http://www.w3.org/1999/xlink" width="50px" height="50px" viewBox="0 0 50 50" version="1.1"><title>sv-4</title><g id="sv-4" stroke="none" stroke-width="1" fill="none" fill-rule="evenodd"><g id="Group-5"><circle id="Oval" fill-opacity="0" fill="#FFFFFF" cx="25" cy="25" r="25"></circle><g id="005-graduation-cap" transform="translate(1.000000, 8.999930)" fill="#123885" fill-rule="nonzero"><path d="M45.1875,28.2437578 L45.1875,10.0331016 L47.3524687,9.32903906 C47.738625,9.20350781 48,8.84350781 48,8.43747656 C48,8.03144531 47.738625,7.67153906 47.3524687,7.54591406 L24.2899687,0.0459140625 C24.1014375,-0.0153046875 23.8985625,-0.0153046875 23.7100313,0.0459140625 L0.64753125,7.54591406 C0.26146875,7.67153906 0,8.03153906 0,8.43757031 C0,8.84360156 0.26146875,9.20350781 0.64753125,9.32913281 L9.9375,12.3502266 L9.9375,19.6875703 C9.9375,21.5887266 11.5045312,23.3072578 14.3499375,24.5267578 C16.9429688,25.6380703 20.3700938,26.2500703 24,26.2500703 C27.6299062,26.2500703 31.0570312,25.6380703 33.6501563,24.5267578 C36.4954688,23.3072578 38.0625,21.5887266 38.0625,19.6875703 L38.0625,12.3502266 L43.3125,10.6429453 L43.3125,28.2437578 C41.6969062,28.6611328 40.5,30.1309453 40.5,31.8750703 L40.5,33.9187266 C40.5,35.3521641 39.9166875,36.7575703 38.8995937,37.7745703 C38.6315625,38.0426953 38.5513125,38.4459141 38.6963437,38.7962578 C38.8414687,39.1466016 39.1832813,39.3749766 39.5625,39.3749766 L41.4375,39.3749766 C45.0560625,39.3749766 48,36.4310391 48,32.8124766 L48,31.8749766 C48,30.1308516 46.8030937,28.6611328 45.1875,28.2437578 Z M24,1.92344531 L44.0310937,8.43757031 L24,14.9516953 L3.96890625,8.43757031 L24,1.92344531 Z M36.1875,19.6875703 C36.1875,21.9046641 31.1822812,24.3750703 24,24.3750703 C16.8177188,24.3750703 11.8125,21.9046641 11.8125,19.6875703 L11.8125,12.9599766 L23.7100313,16.8291328 C23.80425,16.8597891 23.902125,16.8750703 24,16.8750703 C24.097875,16.8750703 24.1956562,16.8596953 24.2899687,16.8291328 L36.1875,12.9599766 L36.1875,19.6875703 Z" id="Shape"></path></g></g></g></svg> 