<?xml version="1.0" encoding="UTF-8"?> <svg xmlns="http://www.w3.org/2000/svg" xmlns:xlink="http://www.w3.org/1999/xlink" width="50px" height="50px" viewBox="0 0 50 50" version="1.1"><title>sv-3</title><g id="sv-3" stroke="none" stroke-width="1" fill="none" fill-rule="evenodd"><g id="Group-4"><circle id="Oval" fill-opacity="0" fill="#FFFFFF" cx="25" cy="25" r="25"></circle><g id="008-engineer-2" transform="translate(2.044438, 1.000000)" fill="#123885" fill-rule="nonzero"><path d="M42.0691875,38.2204688 L41.8993125,38.1720938 C39.4178438,37.505625 38.5785,36.8654063 37.472625,36.4450312 C34.7890312,35.4225937 33.4648125,34.5934687 32.8129687,34.0104375 L32.23875,31.7750625 L32.2255312,29.922 C34.3216875,27.1168125 35.8202812,23.6145938 35.8202812,19.9875937 C35.8202812,19.305 35.7807187,18.6428438 35.706,17.9998125 L36.92475,17.9998125 L37.92375,17.9998125 C38.4759375,17.9998125 38.9226562,17.5523437 38.9226562,17.0000625 C38.9226562,16.4477813 38.4758437,15.9995625 37.92375,15.9995625 L36.92475,15.9995625 C36.92475,10.0296562 33.1864687,4.9335 27.9248437,2.920875 L27.9248437,2.00025 C27.9248437,1.62009375 27.7080937,1.2729375 27.3681562,1.10446875 C27.2773125,1.05909375 25.1196563,0 22.9238438,0 C20.7280313,0 18.569625,1.05909375 18.4787813,1.10446875 C18.1389375,1.2736875 17.9235938,1.62009375 17.9235938,2.00025 L17.9243438,2.920875 C12.6619688,4.9335 8.9236875,10.0296563 8.9236875,15.9995625 L7.9239375,15.9995625 C7.37175,15.9995625 6.9241875,16.4477813 6.9241875,17.0000625 C6.9241875,17.5523438 7.37175,17.9999063 7.9239375,17.9999063 L8.9236875,17.9999063 L10.1416875,17.9999063 C10.0669687,18.6429375 10.0281563,19.3050938 10.0281563,19.9876875 C10.0281563,23.6146875 11.526,27.1169063 13.6221563,29.9220938 L13.6089375,31.7751563 L13.0347187,34.0105312 C12.383625,34.5935625 11.0601563,35.4225938 8.3743125,36.445125 C7.26909375,36.8655 6.42975,37.505625 3.948375,38.1721875 L3.7785,38.2205625 C1.51978125,38.9676563 0,41.0623125 0,43.4265938 L0,47.9998125 L18.7710938,47.9998125 L22.9238437,47.9998125 L27.0766875,47.9998125 L45.8484375,47.9998125 L45.8484375,43.4265938 C45.8484375,41.0622188 44.328,38.9674688 42.0691875,38.2204688 Z M14.4388125,7.514625 C15.4649063,6.48853125 16.6440938,5.672625 17.9251875,5.0851875 L17.9259375,9.00440625 C17.9266875,9.5566875 18.3741563,10.0041562 18.9264375,10.0041562 C19.4787188,10.0034062 19.9261875,9.5559375 19.9261875,9.00365625 L19.9240313,2.65434375 C20.6571562,2.36728125 21.8415,2.00025 22.9240313,2.00025 C24.0651563,2.00025 25.2501562,2.391375 25.9240312,2.6565 L25.9240312,8.87465625 C25.9240312,9.4269375 26.37225,9.87515625 26.9230313,9.87515625 C27.4767187,9.87515625 27.9250312,9.4269375 27.9250312,8.87465625 L27.9250312,5.0859375 C29.2052812,5.672625 30.3830625,6.48928125 31.4084062,7.514625 C33.6759375,9.7815 34.9239375,12.794625 34.9239375,15.9996562 L10.9239375,15.9996562 C10.9239375,12.7947187 12.1720313,9.7815 14.4388125,7.514625 Z M12.0283125,19.9876875 C12.0283125,19.30725 12.072375,18.6444375 12.1573125,17.9999062 L33.690375,17.9999062 C33.7753125,18.6444375 33.8192813,19.30725 33.8192813,19.9876875 C33.8192813,23.2814063 32.3207813,26.8783125 29.709,29.8561875 C28.5605625,31.162875 27.2744063,32.2585313 25.98825,33.02175 C24.8413125,33.7029375 23.752875,34.0779375 22.92375,34.0779375 C22.094625,34.0779375 21.0062813,33.7029375 19.8593438,33.02175 C18.5731875,32.2585313 17.2870313,31.162875 16.1385938,29.8561875 C13.5268125,26.8783125 12.0283125,23.2814063 12.0283125,19.9876875 Z M24.6509062,37.6549688 L24.2034375,38.9997188 L21.6443437,38.9997188 L21.196875,37.6549688 L22.9238437,36.1755 L24.6509062,37.6549688 Z M19.05675,45.9987188 L1.99940625,45.9987188 L1.99940625,43.4264062 C1.99940625,41.9352188 2.95228125,40.6154062 4.37390625,40.1305312 L4.4859375,40.0982812 C6.35578125,39.594375 7.38853125,39.1006875 8.2183125,38.70375 C8.539125,38.5485 8.81671875,38.4166875 9.08625,38.314125 C10.52325,37.76625 12.3089063,37.0148437 13.6521563,36.064125 L16.0449375,40.4761875 C16.1884688,40.7428125 16.444875,40.9273125 16.74225,40.983 C16.8023438,40.9947188 16.8630938,41.000625 16.9239375,41.000625 C17.1604688,41.000625 17.3919375,40.9156875 17.574375,40.7589375 L19.557,39.0612188 L19.9005,40.0924688 L19.05675,45.9987188 Z M17.21325,38.4343125 L15.0079687,34.3679062 L15.572625,32.1705938 C17.167875,33.7570313 18.916875,34.9508438 20.5456875,35.58075 L17.21325,38.4343125 Z M22.9238438,45.9987188 L21.0766875,45.9987188 L21.7915313,41.0007187 L24.0561563,41.0007187 L24.771,45.9987188 L22.9238438,45.9987188 Z M30.2745,32.1705938 L30.8399063,34.3679062 L28.633875,38.4343125 L25.3028438,35.58075 C26.93175,34.9508438 28.68075,33.7570312 30.2745,32.1705938 Z M43.8475313,45.9987188 L26.7910313,45.9987188 L25.9472813,40.0924688 L26.2900313,39.0612188 L28.2734063,40.7589375 C28.4550938,40.9156875 28.6864688,41.000625 28.9238438,41.000625 C28.9853438,41.000625 29.0454375,40.9948125 29.1055313,40.983 C29.4029063,40.9273125 29.6592188,40.7428125 29.8028438,40.4761875 L32.1962812,36.064125 C33.5395312,37.01625 35.3251875,37.76625 36.7636875,38.314125 C37.0303125,38.4166875 37.3085625,38.5485 37.629375,38.70375 C38.4598125,39.1006875 39.4910625,39.594375 41.36175,40.0982813 L41.4745312,40.1305313 C42.8954062,40.6154063 43.8475313,41.9352188 43.8475313,43.4264063 L43.8475313,45.9987188 L43.8475313,45.9987188 Z" id="Shape"></path></g></g></g></svg> 